<svg xmlns="http://www.w3.org/2000/svg" width="72" height="72">
    <path fill="#1F4FA7" fill-rule="evenodd" d="M36 72C16.118 72 0 55.882 0 36 0 16.117 16.118 0 36 0s36 16.117 36 36c0 19.882-16.118 36-36 36zm0-69.938C17.257 2.062 2.062 17.257 2.062 36c0 18.743 15.195 33.937 33.938 33.937 18.743 0 33.937-15.194 33.937-33.937C69.937 17.257 54.743 2.062 36 2.062zm8.304 48.798H27.012v-4.444c3.197-3.579 5.544-6.321 7.04-8.228 1.496-1.907 2.544-3.513 3.146-4.818a9.534 9.534 0 0 0 .902-4.026c0-1.262-.308-2.237-.924-2.926-.616-.689-1.467-1.035-2.552-1.035-.939 0-1.775.236-2.508.704-.734.47-1.54 1.233-2.42 2.289l-3.608-2.816c2.346-3.285 5.382-4.928 9.108-4.928 1.906 0 3.556.367 4.95 1.099 1.393.734 2.449 1.725 3.168 2.971.718 1.247 1.078 2.632 1.078 4.158 0 1.643-.308 3.211-.924 4.708-.616 1.495-1.672 3.197-3.168 5.103-1.496 1.908-3.696 4.386-6.6 7.436h11.264l-.66 4.753z"/>
</svg>
