<svg xmlns="http://www.w3.org/2000/svg" width="72" height="72">
    <path fill="#1F4FA7" fill-rule="evenodd" d="M36 72C16.118 72 0 55.882 0 36 0 16.117 16.118 0 36 0s36 16.117 36 36c0 19.882-16.118 36-36 36zm0-69.938C17.257 2.062 2.062 17.257 2.062 36c0 18.743 15.195 33.937 33.938 33.937 18.743 0 33.937-15.194 33.937-33.937C69.937 17.257 54.743 2.062 36 2.062zm10.184 40.349c0 1.672-.404 3.206-1.21 4.599-.807 1.393-1.973 2.5-3.498 3.322-1.526.82-3.344 1.231-5.456 1.231-3.696 0-6.747-1.451-9.152-4.356l3.388-3.08c.938.968 1.818 1.666 2.64 2.091.821.425 1.73.637 2.728.637 1.32 0 2.368-.417 3.146-1.253.777-.836 1.166-2.003 1.166-3.499 0-1.642-.396-2.822-1.188-3.541-.792-.718-1.966-1.079-3.52-1.079h-2.112l.704-4.224h1.408c1.29 0 2.31-.374 3.058-1.122.748-.748 1.122-1.811 1.122-3.189 0-1.203-.33-2.127-.99-2.772-.66-.645-1.577-.968-2.75-.968-1.848 0-3.564.821-5.148 2.463l-3.036-3.167c2.522-2.582 5.5-3.872 8.932-3.872 1.818 0 3.402.337 4.752 1.011 1.349.675 2.376 1.584 3.08 2.728.704 1.145 1.056 2.421 1.056 3.829 0 1.789-.484 3.271-1.452 4.444s-2.391 2.009-4.268 2.507c1.994.236 3.593.954 4.796 2.156 1.202 1.204 1.804 2.905 1.804 5.104z"/>
</svg>
