<svg width="26" height="16" viewBox="0 0 26 16" fill="none" xmlns="http://www.w3.org/2000/svg">
<path opacity="0.702" fill-rule="evenodd" clip-rule="evenodd" d="M13.27 0.0670166C8.47098 0.0670166 4.11898 2.69502 0.908984 6.96002C0.78092 7.13158 0.711731 7.33993 0.711731 7.55402C0.711731 7.7681 0.78092 7.97646 0.908984 8.14802C4.11898 12.42 8.47098 15.046 13.27 15.046C18.069 15.046 22.421 12.42 25.633 8.15302C25.7606 7.98126 25.8295 7.77298 25.8295 7.55902C25.8295 7.34505 25.7606 7.13677 25.633 6.96502C22.421 2.69502 18.069 0.0670166 13.27 0.0670166ZM13.614 12.831C12.8637 12.8794 12.1118 12.7672 11.4083 12.5019C10.7049 12.2365 10.0661 11.8242 9.53468 11.2924C9.00326 10.7606 8.59138 10.1216 8.32656 9.41791C8.06174 8.71428 7.95006 7.96224 7.99898 7.21202C8.16298 4.58002 10.295 2.44702 12.927 2.28302C13.6772 2.23465 14.429 2.34683 15.1324 2.6121C15.8358 2.87736 16.4745 3.2896 17.0059 3.82129C17.5373 4.35299 17.9492 4.99192 18.2141 5.69543C18.479 6.39895 18.5908 7.15087 18.542 7.90102C18.372 10.528 16.24 12.662 13.614 12.831ZM13.455 10.394C13.0513 10.4207 12.6465 10.3608 12.2678 10.2183C11.8891 10.0759 11.5453 9.85418 11.2592 9.56805C10.9732 9.28191 10.7516 8.93796 10.6093 8.55922C10.4669 8.18049 10.4072 7.77572 10.434 7.37202C10.4805 6.68273 10.7752 6.03364 11.2635 5.54494C11.7519 5.05625 12.4007 4.76105 13.09 4.71402C13.4938 4.68751 13.8986 4.74754 14.2773 4.8901C14.6561 5.03266 15 5.25445 15.2861 5.54065C15.5722 5.82684 15.7939 6.17084 15.9363 6.54961C16.0787 6.92839 16.1386 7.33322 16.112 7.73702C16.0652 8.42629 15.7703 9.07527 15.2817 9.56378C14.7932 10.0523 14.1443 10.3472 13.455 10.394Z" fill="#999999"/>
</svg>
