<svg width="63" height="63" viewBox="0 0 63 63" fill="none" xmlns="http://www.w3.org/2000/svg">
<g clip-path="url(#clip0)">
<path d="M15.6449 22.2212C15.6449 22.2212 22.1911 15.404 32.2385 16.6784C32.2385 16.6784 38.0739 13.8594 46.4798 22.3647C46.4798 22.3647 48.3286 26.0206 48.1945 27.4121C48.1945 27.4121 52.163 30.6358 49.2974 35.7039C49.2974 35.7039 49.4284 37.4915 47.3645 40.5659L44.165 47.8114L39.4556 48.4929L39.969 47.1524C39.969 47.1524 39.508 40.6096 40.1609 39.0225C40.1609 39.0225 39.6801 37.8534 38.7364 39.5224L38.1341 42.607L15.1424 27.1484L15.6449 22.2212Z" fill="#F53C4D"/>
<path d="M44.7654 33.8717C45.8261 30.3506 46.5194 26.7193 46.813 23.047C47.1884 23.8558 47.7893 25.2331 48.0581 26.3153C47.1818 28.9229 46.0753 31.4498 44.7654 33.8717Z" fill="#D03F3E"/>
<path d="M39.5305 21.8853C39.8132 22.0254 39.9881 22.2713 40.0954 22.5666C39.9132 22.3364 39.7181 22.1087 39.5305 21.8853Z" fill="#D03F3E"/>
<path d="M40.1571 39.0088C40.1021 38.8984 39.6348 37.96 38.7508 39.5058C38.6679 38.8723 38.6714 38.2084 38.6084 37.5747C38.4396 35.7955 37.6812 34.1242 36.9407 32.491C35.5232 29.3698 34.0501 26.1774 31.6646 23.7132C33.1161 24.4365 34.2031 25.7169 35.2263 26.9697C37.2525 29.447 39.2709 32.1249 39.7475 35.2826C40.5704 33.8097 40.5394 32.0292 40.4843 30.3441C40.4136 28.1314 40.3436 25.9174 40.2729 23.7047C40.2619 23.3267 40.2261 22.9049 40.094 22.5658C40.9678 23.6184 41.7502 24.7448 42.1177 26.0498C42.6057 27.7846 42.2979 29.6264 41.9443 31.3944C41.4335 33.9458 40.8353 36.4942 40.1571 39.0088Z" fill="#D03F3E"/>
<path d="M6.77175 28.1391C7.31755 27.1737 6.68228 28.2768 6.90217 27.8675C6.25335 28.9331 9.65762 22.965 10.9384 22.8564C11.9754 22.5654 13.7198 20.8916 13.8127 21.9635C14.4777 21.8422 14.4789 22.5765 15.109 22.0554C15.4382 22.0664 15.9701 21.5757 15.8144 22.3303C16.1032 22.2987 15.9946 23.0022 16.4019 22.9979C16.4495 23.6296 17.0012 23.5714 17.3439 24.2658C17.0982 24.7002 17.8456 23.8605 17.8962 24.4988C17.9841 25.0739 18.5806 24.9948 19.1514 24.9789C19.8291 24.7738 20.4046 24.7671 20.5061 25.3796C20.5923 25.8233 20.9054 26.0995 21.545 25.8828C22.141 25.7406 22.495 26.111 22.6573 26.7414C22.7417 27.5128 23.0801 27.7587 23.5447 27.5538C23.5894 28.0913 24.0443 27.6694 23.9063 27.9136C23.8964 27.9311 23.7955 28.3433 24.1931 28.0609C24.4293 28.0639 24.5174 28.5102 24.958 28.4702C25.0164 29.1063 25.6951 28.7796 26.0578 29.0937C26.7035 28.9102 27.339 28.8267 27.3502 29.8823C28.0063 29.7972 28.4171 30.1782 28.6907 30.7873C29.2432 30.903 29.6416 31.2737 29.9375 31.7616C30.4254 31.9069 30.4284 32.8454 30.9464 32.7534C31.4961 32.6081 31.9711 32.4752 31.5748 33.7167C31.7051 33.4864 31.5039 34.0963 31.838 33.9614C31.9639 34.1945 32.381 34.1114 32.5414 34.6284C32.8993 34.7961 33.2004 35.2076 33.5557 35.6166C34.2679 35.3915 34.3025 36.4553 34.7486 36.8265C35.1019 37.3617 35.2678 38.2635 35.9915 38.1554C36.7716 37.9505 36.8529 38.9581 37.1542 39.5035C37.1157 40.6499 37.9323 40.2079 38.1065 40.7707C38.3755 41.1657 38.7629 41.2228 38.7178 41.8549C38.7114 41.8661 38.547 42.6274 38.5644 42.6785C38.5729 42.8155 38.2138 43.6171 38.3138 43.6009C38.1676 44.5113 36.4218 47.9787 35.2042 49.045C35.2063 49.0413 35.2808 48.781 34.926 49.1455C34.7694 49.1594 34.7407 48.8127 34.1809 49.2711C33.7725 49.4615 33.5886 49.1146 33.108 49.1552C32.4306 49.5438 32.1675 49.0563 31.8458 48.5324C31.5255 48.006 31.11 47.5017 30.5329 47.1374C30.8677 46.5452 30.6012 46.9348 30.45 47.0443C30.2068 47.3165 30.4488 46.652 30.2035 46.776C30.4984 45.9447 29.8593 46.6921 29.7989 46.349C29.7217 46.0326 29.377 46.122 29.2379 45.7806C28.6359 46.2581 28.848 45.2313 28.5262 45.0874C28.4727 44.4689 28.3393 43.9276 27.6667 44.2842C27.2752 44.1438 27.3259 43.1629 26.6638 43.39C26.4895 42.7544 25.599 43.3299 25.5205 42.4197C24.9684 42.3471 24.8049 41.5375 24.2417 41.3909C23.8571 40.9256 23.1826 40.9292 22.8298 40.32C22.2802 40.0588 21.677 39.8515 21.2904 39.2232C20.7657 38.839 20.4069 38.1206 19.6252 38.1181C19.1705 37.5371 18.4615 37.3709 17.8397 37.021C17.3426 36.4507 16.6286 36.2321 15.9372 35.9469C14.9698 35.0249 13.8584 34.679 12.9419 34.2748C12.0191 33.8819 11.3732 33.2854 10.7377 32.9161C10.185 32.4004 9.68719 32.033 9.2027 31.8466C8.45486 32.126 8.52666 31.1603 8.21604 31.0376C7.9748 30.7921 8.02949 30.1869 7.65877 30.4598C7.50395 30.3508 7.6495 29.8333 7.40943 30.0825C7.38387 29.9524 7.25656 30.087 7.34838 29.8778C7.18323 30.1231 6.98093 30.478 7.35542 29.8157C6.91084 30.602 7.03312 29.8714 7.00195 29.3333C6.71556 29.2408 6.19147 29.4897 6.77175 28.1391Z" fill="#DAE5EF"/>
<path d="M46.2878 50.5088C46.4046 52.8797 44.0673 55.0759 41.6963 55.1927C39.3254 55.3094 37.3094 53.4805 37.1926 51.1095C37.0759 48.7386 38.9048 46.7226 41.2757 46.6058C43.6455 46.4884 46.1718 48.1366 46.2878 50.5088Z" fill="#DAE5EF"/>
<path d="M43.8482 54.5025C43.1899 54.9069 42.4435 55.1458 41.6944 55.1849C39.3241 55.3152 37.3051 53.4797 37.1944 51.1039C37.0767 48.7406 38.8997 46.7146 41.2755 46.6039C41.3914 46.6034 41.4949 46.5958 41.6037 46.6078C40.3586 47.4073 39.564 48.8417 39.6444 50.4237C39.7475 52.6961 41.6145 54.4788 43.8482 54.5025Z" fill="#CBD6E0"/>
<path d="M41.7319 46.7811C41.7752 46.7395 41.7967 46.684 41.8081 46.6259C41.8004 46.6249 41.7932 46.6258 41.7856 46.6248L41.7319 46.7811Z" fill="#CBD6E0"/>
</g>
<defs>
<clipPath id="clip0">
<rect x="22.6472" width="46.0131" height="46.0131" transform="rotate(29.4848 22.6472 0)" fill="white"/>
</clipPath>
</defs>
</svg>
