<svg xmlns="http://www.w3.org/2000/svg" width="70" height="120">
    <path fill="#D3D4D8" fill-rule="evenodd" d="M36.054.518c-14.489 0-26.2 5.775-35.13 17.32l15.359 12.091c5.446-6.426 11.111-9.64 16.993-9.64 3.048 0 5.446.791 7.189 2.369 1.742 1.58 2.615 3.84 2.615 6.781 0 2.834-.71 5.147-2.124 6.944-1.417 1.798-3.705 3.896-6.863 6.291-2.941 2.287-5.366 4.44-7.271 6.454-1.907 2.017-3.541 4.739-4.902 8.17-1.363 3.431-2.042 7.654-2.042 12.663v5.065H42.59v-4.248c0-3.922.952-7.108 2.859-9.559 1.905-2.451 4.874-5.254 8.905-8.415 3.268-2.504 5.854-4.738 7.761-6.699 1.905-1.961 3.539-4.465 4.902-7.516 1.361-3.048 2.043-6.699 2.043-10.947 0-4.792-1.254-9.258-3.758-13.399-2.508-4.138-6.238-7.46-11.193-9.967C49.151 1.772 43.133.518 36.054.518zm-4.575 89.867c-4.032 0-7.409 1.417-10.131 4.249-2.724 2.833-4.085 6.209-4.085 10.13 0 4.031 1.333 7.463 4.004 10.294 2.667 2.831 6.071 4.248 10.212 4.248 4.138 0 7.57-1.417 10.294-4.248 2.721-2.831 4.084-6.263 4.084-10.294 0-3.921-1.363-7.297-4.084-10.13-2.724-2.832-6.156-4.249-10.294-4.249z"/>
</svg>
