<svg xmlns="http://www.w3.org/2000/svg" width="102" height="102">
    <path fill="#AFBED9" fill-rule="evenodd" d="M91.588 41.037H71.792l-6.49 6.489a1.98 1.98 0 0 1-3.384-1.402v-5.15c-4.939-.56-8.789-4.764-8.789-9.85V9.91c0-5.465 4.446-9.911 9.912-9.911h28.547c5.465 0 9.912 4.446 9.912 9.911v21.214c0 5.466-4.447 9.913-9.912 9.913zM97.535 9.91a5.953 5.953 0 0 0-5.947-5.946H63.041a5.953 5.953 0 0 0-5.947 5.946v21.214a5.955 5.955 0 0 0 5.947 5.948h.859a1.98 1.98 0 0 1 1.982 1.982v2.285l3.687-3.687c.372-.372.876-.58 1.402-.58h20.617a5.955 5.955 0 0 0 5.947-5.948V9.91zm-8.723 20.817H65.816a1.982 1.982 0 0 1 0-3.965h22.996a1.983 1.983 0 0 1 0 3.965zm0-8.723H65.816a1.982 1.982 0 0 1 0-3.965h22.996a1.983 1.983 0 0 1 0 3.965zm0-8.723H73.944a1.982 1.982 0 0 1 0-3.965h14.868a1.983 1.983 0 0 1 0 3.965zm-22.996 0a2 2 0 0 1-1.401-.58 1.999 1.999 0 0 1-.581-1.402c0-.521.212-1.033.581-1.402s.88-.581 1.401-.581c.522 0 1.033.212 1.402.581s.581.881.581 1.402c0 .521-.213 1.033-.581 1.402a2 2 0 0 1-1.402.58zm22.996 36.346a1.992 1.992 0 0 1-1.401-.581 1.993 1.993 0 0 1-.581-1.402 2 2 0 0 1 .581-1.402 2 2 0 0 1 1.401-.58 2 2 0 0 1 1.402.58c.369.369.581.88.581 1.402 0 .524-.212 1.033-.581 1.402-.369.37-.88.581-1.402.581zm-1.982 5.485a1.982 1.982 0 0 1 3.965 0v19.87c0 3.034-2.473 5.502-5.512 5.502H55.115v9.158c5.001.507 8.917 4.742 8.917 9.874a1.983 1.983 0 0 1-1.982 1.983H28.745a1.982 1.982 0 0 1-1.982-1.983c0-5.133 3.916-9.367 8.917-9.874v-9.158H5.512C2.473 80.484 0 78.016 0 74.982v-58.78C0 13.169 2.473 10.7 5.512 10.7h41.207a1.983 1.983 0 0 1 0 3.965H5.512c-.853 0-1.547.689-1.547 1.537v47.629h6.74v-4.893c0-7.539 5.669-13.774 12.966-14.679a10.308 10.308 0 0 1-2.308-6.509v-7.572c0-4.607 3.749-8.357 8.357-8.357h10.373c1.094 0 1.982.888 1.982 1.982V37.75c0 2.464-.866 4.729-2.309 6.509 7.298.905 12.966 7.14 12.966 14.679v4.893H86.83v-8.719zM31.066 97.533h28.662a5.97 5.97 0 0 0-5.62-3.976H36.687a5.97 5.97 0 0 0-5.621 3.976zm20.085-7.942v-9.107H39.644v9.107h11.507zM38.11 25.787h-8.39a4.398 4.398 0 0 0-4.393 4.393v1.624h9.931a2.855 2.855 0 0 0 2.852-2.853v-3.164zm0 9.354a6.77 6.77 0 0 1-2.852.628h-9.931v1.981a6.4 6.4 0 0 0 6.392 6.393 6.4 6.4 0 0 0 6.391-6.393v-2.609zm-8.705 12.967l2.314 2.313 2.313-2.313h-4.627zm19.363 10.83c0-5.434-4.023-9.944-9.246-10.713l-6.402 6.401a1.976 1.976 0 0 1-1.402.581 1.976 1.976 0 0 1-1.401-.581l-6.402-6.401c-5.223.769-9.245 5.279-9.245 10.713v4.893h34.098v-4.893zM3.965 67.796v7.186c0 .847.694 1.537 1.547 1.537h79.771c.853 0 1.547-.69 1.547-1.537v-7.186H3.965zm41.432 6.342a1.992 1.992 0 0 1-1.401-.581 1.994 1.994 0 0 1-.581-1.401 1.988 1.988 0 0 1 1.982-1.983c.522 0 1.033.21 1.402.581.369.369.581.88.581 1.402 0 .521-.212 1.033-.581 1.401-.369.37-.88.581-1.402.581z"/>
</svg>
