<svg xmlns="http://www.w3.org/2000/svg" width="102" height="103">
    <path fill="#AFBED9" fill-rule="evenodd" d="M22.676 36.555c.647.61.677 1.631.067 2.277l-6.537 6.936a1.61 1.61 0 0 1-1.172.507h-.01a1.616 1.616 0 0 1-1.176-.522l-2.825-3.077a1.612 1.612 0 0 1 2.373-2.178l1.654 1.801 5.349-5.676a1.611 1.611 0 0 1 2.277-.068zm-3.148 7.356c.889 0 1.611.721 1.611 1.611v2.879a1.61 1.61 0 0 1-1.611 1.612H8.33a1.612 1.612 0 0 1-1.611-1.612V37.727c0-.89.721-1.61 1.611-1.61h8.123a1.61 1.61 0 1 1 0 3.221H9.94v7.453h7.978v-1.269c0-.89.721-1.611 1.61-1.611zm7.642-2.79a1.61 1.61 0 1 1 0-3.221h17.761a1.611 1.611 0 0 1 0 3.221H27.17zm36.742 5.498c0 .89-.721 1.61-1.61 1.61H27.17a1.61 1.61 0 1 1 0-3.22h35.132c.889 0 1.61.721 1.61 1.61zm36.477 56.084H68.097a1.61 1.61 0 1 1 0-3.222H98.779v-6.399c0-6.697-5.271-8.619-5.496-8.698l-.077-.028-8.799-3.529-4.523 4.692a1.612 1.612 0 0 1-1.134.493h-.026c-.419 0-.823-.164-1.123-.456l-4.625-4.505a1.582 1.582 0 0 1-.129-.144l-8.816 3.452c-.025.01-.05.02-.075.028-.215.076-5.485 1.997-5.485 8.695v6.399h4.473a1.61 1.61 0 1 1 0 3.222H56.86c-.889 0-1.61-.724-1.61-1.613v-8.008c0-3.262 1.018-5.783 2.378-7.656H1.61A1.61 1.61 0 0 1 0 83.815V60.816c0-.89.721-1.611 1.61-1.611h61.403c.228-.236.476-.451.742-.644v-2.385H1.61c-.889 0-1.61-.722-1.61-1.611V31.564c0-.889.721-1.61 1.61-1.61h61.334a1.61 1.61 0 0 1 0 3.221H3.221v19.779H63.82c.462-4.975 3.461-9.224 7.687-11.442v-8.337h-3.173a1.61 1.61 0 1 1 0-3.221h4.784c.889 0 1.61.721 1.61 1.61v8.724a14.428 14.428 0 0 1 3.462-.423h1.069c7.96 0 14.435 6.476 14.435 14.436v4.277a5.688 5.688 0 0 1 2.329 4.589 5.703 5.703 0 0 1-5.666 5.696 11.05 11.05 0 0 1-5.348 6.681v2.054l9.356 3.752c2.669.919 7.635 4.524 7.635 11.732v7.994c0 .889-.721 1.627-1.611 1.627zM75.71 79.218l2.978 2.9 3.1-3.216v-.183-2.034c-.655.123-1.33.188-2.02.188H77.73c-.69 0-1.365-.066-2.02-.189v2.534zM61.403 63.169c0-.253.018-.5.05-.743H3.221v19.78h57.576c.093 0 .183.01.271.025a9.443 9.443 0 0 1 1.822-.884l9.599-3.759v-2.044a11.057 11.057 0 0 1-5.348-6.683l-.042.002a5.702 5.702 0 0 1-5.696-5.694zm5.321-2.444a2.475 2.475 0 0 0-2.1 2.444c0 1.235.913 2.26 2.1 2.442v-4.886zm24.05 4.875a2.477 2.477 0 0 0 2.028-2.431 2.477 2.477 0 0 0-2.028-2.433V65.6zm-1.253-9.304l.045.012.099.028.061.022c.028.011.057.021.085.033l.069.034c.023.012.047.023.069.036.026.014.05.03.075.045l.056.037c.025.017.049.036.074.055a.836.836 0 0 1 .116.1 1.02 1.02 0 0 1 .104.108c.017.018.032.037.048.056l.045.061.007.008v-2.63c0-6.184-5.031-11.214-11.215-11.214h-1.068c-6.184 0-11.215 5.03-11.215 11.214h-.001v2.702l.025-.04c.014-.021.03-.04.045-.061.016-.021.031-.042.048-.062.015-.019.031-.035.047-.053.019-.021.037-.042.057-.062l.049-.045c.022-.02.043-.04.066-.058.015-.014.032-.024.048-.036.025-.02.05-.04.076-.057.016-.011.032-.019.048-.029.028-.018.055-.035.085-.051.017-.01.036-.018.054-.027.028-.013.056-.028.086-.041l.071-.025c.025-.01.05-.02.076-.028.028-.009.058-.016.086-.023.023-.005.046-.012.068-.016.036-.008.073-.013.11-.018.017-.002.033-.006.05-.007.054-.005.109-.008.164-.008h.007c.129 0 9.455-.058 13.693-5.918a1.611 1.611 0 0 1 2.876.589c.009.04 1.106 4.571 4.611 5.369zm-1.968 9.572v-6.83c-2.434-.998-3.918-3.029-4.772-4.714-4.172 3.863-10.025 4.828-12.836 5.07v6.474c0 4.292 3.493 7.784 7.785 7.784h2.039c4.292 0 7.784-3.492 7.784-7.784zM62.05 77.481H27.17a1.611 1.611 0 0 1 0-3.221h34.88a1.61 1.61 0 0 1 0 3.221zm-17.119-7.108H27.17a1.611 1.611 0 0 1 0-3.221h17.761a1.61 1.61 0 1 1 0 3.221zM16.206 75.02a1.61 1.61 0 0 1-1.172.506h-.01a1.604 1.604 0 0 1-1.176-.522l-2.825-3.076a1.612 1.612 0 0 1 2.373-2.179l1.654 1.802 5.349-5.676a1.61 1.61 0 1 1 2.344 2.208l-6.537 6.937zm.247-6.431H9.94v7.453h7.978v-1.269a1.61 1.61 0 0 1 3.221 0v2.88a1.61 1.61 0 0 1-1.611 1.61H8.33a1.611 1.611 0 0 1-1.611-1.61V66.978c0-.889.721-1.61 1.611-1.61h8.123a1.61 1.61 0 1 1 0 3.221zm6.223-61.285c.647.61.677 1.63.067 2.277l-6.537 6.936a1.606 1.606 0 0 1-1.172.507h-.01a1.612 1.612 0 0 1-1.176-.522l-2.825-3.077a1.61 1.61 0 0 1 2.373-2.178l1.654 1.801 5.349-5.676a1.612 1.612 0 0 1 2.277-.068zm-3.148 7.356c.889 0 1.611.721 1.611 1.611v2.88a1.61 1.61 0 0 1-1.611 1.61H8.33a1.611 1.611 0 0 1-1.611-1.61V8.476c0-.89.721-1.61 1.611-1.61h8.123a1.61 1.61 0 1 1 0 3.221H9.94v7.453h7.978v-1.269c0-.89.721-1.611 1.61-1.611zm7.642-2.789a1.61 1.61 0 1 1 0-3.222h17.761a1.611 1.611 0 0 1 0 3.222H27.17zm37.133 5.496c0 .889-.721 1.611-1.61 1.611H27.17a1.611 1.611 0 0 1 0-3.221h35.523c.889 0 1.61.721 1.61 1.61zm8.815 9.558H1.61A1.61 1.61 0 0 1 0 25.314V2.313C0 1.424.721.703 1.61.703h61.334a1.61 1.61 0 0 1 0 3.22H3.221v19.78h68.286V3.923h-3.172a1.61 1.61 0 1 1 0-3.22h4.783c.89 0 1.61.72 1.61 1.61v23.001c0 .89-.72 1.611-1.61 1.611z"/>
</svg>
